<svg width="500" height="448" viewBox="0 0 500 448" fill="none" xmlns="http://www.w3.org/2000/svg">
<path d="M387.88 84.5018V271.282C387.881 272.604 387.592 273.913 387.028 275.134C386.464 276.355 385.637 277.465 384.594 278.4C383.551 279.334 382.312 280.075 380.949 280.581C379.586 281.086 378.125 281.345 376.65 281.344H98.65C97.1728 281.349 95.7092 281.092 94.3432 280.588C92.9772 280.084 91.7358 279.344 90.6904 278.409C89.6449 277.473 88.816 276.363 88.2514 275.139C87.6867 273.916 87.3974 272.605 87.4 271.282V84.5018C87.3987 83.1808 87.6879 81.8726 88.2512 80.6519C88.8145 79.4311 89.6407 78.3218 90.6827 77.3874C91.7247 76.4529 92.9621 75.7116 94.324 75.2058C95.6859 74.7 97.1457 74.4397 98.62 74.4397H376.62C378.098 74.435 379.562 74.6918 380.928 75.1955C382.295 75.6992 383.537 76.4397 384.583 77.3746C385.629 78.3096 386.459 79.4205 387.025 80.6436C387.591 81.8666 387.881 83.1778 387.88 84.5018Z" fill="white"/>
<path d="M387.88 90.272V271.264C387.884 272.587 387.596 273.898 387.034 275.122C386.471 276.345 385.644 277.457 384.601 278.393C383.557 279.33 382.318 280.072 380.954 280.579C379.589 281.085 378.127 281.345 376.65 281.344H98.65C97.5944 281.346 96.5438 281.213 95.53 280.95L387.88 90.272Z" fill="#263238"/>
<path opacity="0.9" d="M387.88 90.272V271.264C387.884 272.587 387.596 273.898 387.034 275.122C386.471 276.345 385.644 277.457 384.601 278.393C383.557 279.33 382.318 280.072 380.954 280.579C379.589 281.085 378.127 281.345 376.65 281.344H98.65C97.5944 281.346 96.5438 281.213 95.53 280.95L387.88 90.272Z" fill="white"/>
<path d="M310.81 191.386L326 185.257L322.76 169.03L306 167.83C303.9 162.819 301.08 158.075 297.61 153.718L302.85 145.77L306.2 140.672L293.2 129.114L278.65 136.945C270.294 131.778 260.802 128.271 250.81 126.659L246.62 111.713H228.26L224 126.766C218.325 127.79 212.797 129.383 207.52 131.515L194.33 121.336L179.28 130.52L185.54 145.08C181.559 148.775 178.115 152.905 175.29 157.373L157.97 155.805L151.74 171.297L166 180.015C165.307 183.653 164.972 187.337 165 191.027C164.88 192.546 164.88 194.07 165 195.588L149.86 203.204L154.66 219.072H171.76C173.399 222.23 175.319 225.265 177.5 228.148C178.62 229.624 179.803 231.06 181.05 232.458L173.67 246.122L187.8 256.74L201.43 247.592C206.612 250.275 212.148 252.367 217.91 253.819L220.64 268.585L239 270.045L244.5 256.122C250.496 255.587 256.403 254.43 262.1 252.672L273.75 263.101L289.7 254.858L285.31 240.63C289.945 237.148 294.071 233.156 297.59 228.749L313.75 231.347L321.53 216.42L308.83 207.245C310.207 202.05 310.872 196.724 310.81 191.386ZM268.86 191.386C268.859 197.851 266.358 204.117 261.782 209.117C257.206 214.116 250.837 217.54 243.761 218.806C236.684 220.072 229.336 219.102 222.968 216.06C216.6 213.019 211.606 208.094 208.834 202.124C206.062 196.154 205.685 189.508 207.767 183.317C209.848 177.126 214.26 171.773 220.251 168.168C226.242 164.563 233.441 162.93 240.625 163.546C247.808 164.163 254.531 166.99 259.65 171.548C260.21 172.05 260.76 172.57 261.26 173.116C266.129 178.136 268.826 184.556 268.86 191.206V191.386Z" fill="#90CAF9" stroke="#263238" stroke-width="1.02934" stroke-miterlimit="10"/>
<path opacity="0.2" d="M308.83 207.2L321.53 216.375L313.75 231.302L297.59 228.704C294.071 233.112 289.945 237.103 285.31 240.585L289.7 254.813L273.75 263.057L262.1 252.672C256.398 254.446 250.485 255.619 244.48 256.166L239 270.045L220.65 268.585L217.92 253.819C212.158 252.367 206.622 250.275 201.44 247.592L187.81 256.74L173.68 246.122L181 232.458C179.753 231.061 178.57 229.624 177.45 228.149L211.07 206.08C214.643 211.256 220.002 215.247 226.334 217.448C232.666 219.649 239.627 219.941 246.161 218.278C252.695 216.616 258.446 213.09 262.542 208.236C266.638 203.381 268.856 197.462 268.86 191.377V191.197C268.826 184.547 266.129 178.128 261.26 173.107L302.89 145.761L297.65 153.709C301.107 158.071 303.914 162.818 306 167.83L322.68 169.03L326 185.257L310.85 191.386C310.895 196.711 310.217 202.021 308.83 207.2Z" fill="black"/>
<path d="M373.92 148.252L374.68 147.939C375.106 147.772 375.456 147.481 375.673 147.113C375.891 146.746 375.964 146.323 375.88 145.914L375.72 145.08C375.645 144.67 375.417 144.295 375.074 144.015C374.731 143.736 374.293 143.568 373.83 143.539L372.91 143.476C372.551 143.455 372.205 143.351 371.905 143.173C371.606 142.996 371.362 142.751 371.2 142.464C370.95 141.989 370.69 141.568 370.4 141.093C370.218 140.813 370.122 140.494 370.122 140.17C370.122 139.846 370.218 139.528 370.4 139.247L370.87 138.531C371.103 138.172 371.197 137.754 371.137 137.342C371.077 136.931 370.867 136.548 370.54 136.255L369.88 135.663C369.559 135.356 369.128 135.16 368.661 135.109C368.195 135.058 367.724 135.156 367.33 135.386L366.52 135.816C366.207 135.979 365.852 136.064 365.49 136.064C365.128 136.064 364.773 135.979 364.46 135.816C363.147 135.139 361.738 134.627 360.27 134.292C359.91 134.208 359.582 134.037 359.322 133.799C359.061 133.561 358.877 133.264 358.79 132.94L358.55 132.044C358.444 131.629 358.18 131.261 357.805 131.001C357.429 130.741 356.964 130.606 356.49 130.619H355.57C355.097 130.606 354.634 130.739 354.258 130.997C353.883 131.255 353.618 131.622 353.51 132.035L353.25 132.931C353.16 133.248 352.979 133.538 352.725 133.772C352.47 134.006 352.151 134.177 351.8 134.266C351.28 134.391 350.8 134.534 350.29 134.696C349.944 134.809 349.57 134.837 349.208 134.778C348.846 134.718 348.508 134.572 348.23 134.355L347.4 133.719C347.054 133.449 346.617 133.289 346.159 133.267C345.701 133.244 345.247 133.359 344.87 133.594L344.14 134.033C343.748 134.269 343.458 134.618 343.318 135.022C343.178 135.426 343.196 135.861 343.37 136.255L343.74 137.151C343.873 137.456 343.913 137.788 343.857 138.112C343.801 138.436 343.65 138.741 343.42 138.996C343.09 139.346 342.78 139.713 342.49 140.09C342.286 140.369 341.999 140.591 341.662 140.732C341.324 140.873 340.95 140.927 340.58 140.887L339.58 140.797C339.117 140.752 338.65 140.848 338.256 141.071C337.861 141.294 337.563 141.631 337.41 142.025L337.08 142.84C336.92 143.224 336.907 143.644 337.043 144.035C337.178 144.426 337.455 144.765 337.83 145L338.78 145.6C339.076 145.788 339.312 146.043 339.463 146.339C339.614 146.634 339.675 146.961 339.64 147.284C339.583 147.767 339.557 148.251 339.56 148.736C339.549 149.051 339.452 149.358 339.278 149.632C339.103 149.905 338.857 150.136 338.56 150.304L337.56 150.779C337.147 150.979 336.823 151.3 336.641 151.687C336.459 152.075 336.431 152.507 336.56 152.911L336.8 153.718C336.918 154.123 337.186 154.48 337.56 154.731C337.934 154.982 338.393 155.111 338.86 155.098H339.86C340.221 155.092 340.578 155.172 340.894 155.33C341.21 155.487 341.474 155.716 341.66 155.994C341.94 156.433 342.24 156.89 342.55 157.275C342.756 157.543 342.879 157.854 342.907 158.178C342.935 158.503 342.867 158.828 342.71 159.121L342.29 159.9C342.083 160.274 342.023 160.701 342.121 161.109C342.219 161.518 342.469 161.884 342.83 162.149L343.54 162.687C343.895 162.959 344.342 163.116 344.809 163.13C345.276 163.145 345.735 163.017 346.11 162.767L346.84 162.31C347.135 162.12 347.481 162.004 347.843 161.972C348.205 161.941 348.57 161.996 348.9 162.131C349.42 162.355 349.95 162.561 350.5 162.74C350.839 162.853 351.139 163.044 351.369 163.295C351.599 163.545 351.751 163.845 351.81 164.165L351.96 164.963C352.034 165.375 352.263 165.752 352.608 166.032C352.953 166.312 353.395 166.478 353.86 166.504L354.8 166.584C355.261 166.621 355.722 166.518 356.11 166.292C356.498 166.066 356.79 165.731 356.94 165.339L357.23 164.613C357.354 164.303 357.567 164.027 357.848 163.815C358.129 163.602 358.468 163.46 358.83 163.404C359.414 163.324 359.991 163.213 360.56 163.072C360.912 162.982 361.284 162.981 361.637 163.068C361.99 163.155 362.309 163.327 362.56 163.565L363.17 164.12C363.491 164.416 363.914 164.607 364.371 164.663C364.828 164.718 365.293 164.634 365.69 164.425L366.51 164.004C366.921 163.804 367.244 163.485 367.425 163.099C367.607 162.713 367.637 162.283 367.51 161.88L367.28 161.155C367.172 160.834 367.164 160.492 367.256 160.167C367.347 159.842 367.535 159.546 367.8 159.309C368.23 158.934 368.637 158.539 369.02 158.126C369.254 157.864 369.566 157.667 369.92 157.556C370.273 157.445 370.655 157.425 371.02 157.499L371.84 157.633C372.295 157.723 372.772 157.667 373.186 157.476C373.601 157.285 373.927 156.969 374.11 156.585L374.5 155.823C374.705 155.446 374.759 155.016 374.654 154.607C374.548 154.198 374.289 153.833 373.92 153.574L373.3 153.126C373.016 152.925 372.796 152.66 372.662 152.358C372.529 152.056 372.487 151.727 372.54 151.406C372.638 150.857 372.702 150.304 372.73 149.748C372.765 149.428 372.894 149.121 373.102 148.858C373.311 148.596 373.593 148.387 373.92 148.252ZM366.53 148.736C366.53 150.586 365.918 152.395 364.771 153.933C363.623 155.471 361.993 156.67 360.085 157.378C358.178 158.086 356.078 158.271 354.053 157.911C352.028 157.55 350.168 156.659 348.708 155.35C347.248 154.042 346.253 152.375 345.851 150.561C345.448 148.746 345.655 146.866 346.445 145.156C347.235 143.447 348.573 141.986 350.29 140.958C352.007 139.93 354.025 139.382 356.09 139.382C358.846 139.379 361.49 140.356 363.443 142.098C365.397 143.84 366.499 146.204 366.51 148.673L366.53 148.736Z" fill="#90CAF9" stroke="#263238" stroke-width="1.02934" stroke-miterlimit="10"/>
<path d="M387.88 84.5018V85.0125H87.4V84.5018C87.3987 83.1808 87.6879 81.8726 88.2512 80.6519C88.8145 79.4311 89.6407 78.3218 90.6827 77.3874C91.7247 76.4529 92.9621 75.7116 94.324 75.2058C95.6859 74.7 97.1457 74.4397 98.62 74.4397H376.62C378.098 74.435 379.562 74.6918 380.928 75.1955C382.295 75.6992 383.537 76.4397 384.583 77.3746C385.629 78.3096 386.459 79.4205 387.025 80.6436C387.591 81.8666 387.881 83.1778 387.88 84.5018Z" fill="#263238"/>
<path d="M387.88 84.5018V271.282C387.881 272.604 387.592 273.913 387.028 275.134C386.464 276.355 385.637 277.465 384.594 278.4C383.551 279.334 382.312 280.075 380.949 280.58C379.586 281.086 378.125 281.345 376.65 281.344H98.65C97.1732 281.348 95.7102 281.09 94.3448 280.586C92.9794 280.081 91.7385 279.341 90.6933 278.406C89.6481 277.471 88.8192 276.361 88.2541 275.138C87.6889 273.916 87.3987 272.605 87.4 271.282V84.5018C87.3987 83.1808 87.6879 81.8726 88.2512 80.6519C88.8145 79.4311 89.6407 78.3218 90.6827 77.3874C91.7247 76.4529 92.9621 75.7116 94.324 75.2058C95.6859 74.7 97.1457 74.4397 98.62 74.4397H376.62C378.098 74.435 379.562 74.6918 380.928 75.1955C382.295 75.6992 383.537 76.4397 384.583 77.3746C385.629 78.3096 386.459 79.4205 387.025 80.6436C387.591 81.8666 387.881 83.1778 387.88 84.5018Z" stroke="#263238" stroke-width="1.02934" stroke-linecap="round" stroke-linejoin="round"/>
<path d="M87.4 84.5018H387.88" stroke="#263238" stroke-width="1.02934" stroke-linecap="round" stroke-linejoin="round"/>
<path d="M112.45 79.744C112.45 80.1481 112.316 80.543 112.066 80.879C111.815 81.2149 111.459 81.4768 111.043 81.6314C110.626 81.786 110.167 81.8265 109.725 81.7476C109.283 81.6688 108.877 81.4743 108.558 81.1886C108.239 80.9029 108.022 80.5388 107.934 80.1426C107.846 79.7463 107.891 79.3355 108.064 78.9622C108.236 78.589 108.528 78.2699 108.903 78.0454C109.278 77.821 109.719 77.7011 110.17 77.7011C110.775 77.7011 111.355 77.9164 111.782 78.2995C112.21 78.6826 112.45 79.2022 112.45 79.744Z" fill="#90CAF9"/>
<path d="M123.24 79.744C123.236 80.1488 123.098 80.5434 122.843 80.8777C122.588 81.212 122.229 81.4709 121.809 81.6217C121.39 81.7724 120.93 81.8082 120.488 81.7244C120.046 81.6406 119.642 81.4411 119.327 81.1511C119.012 80.8611 118.8 80.4938 118.718 80.0957C118.636 79.6976 118.688 79.2867 118.867 78.9151C119.047 78.5435 119.345 78.2281 119.725 78.0088C120.104 77.7894 120.548 77.6761 121 77.6832C121.601 77.6926 122.174 77.9145 122.593 78.3005C123.013 78.6864 123.245 79.2053 123.24 79.744Z" fill="#90CAF9"/>
<path d="M134 79.744C134 80.1481 133.866 80.543 133.616 80.879C133.365 81.2149 133.009 81.4768 132.593 81.6314C132.176 81.786 131.717 81.8265 131.275 81.7476C130.833 81.6688 130.427 81.4743 130.108 81.1886C129.789 80.9029 129.572 80.5388 129.484 80.1426C129.396 79.7463 129.441 79.3355 129.614 78.9622C129.786 78.589 130.078 78.2699 130.453 78.0454C130.828 77.821 131.269 77.7011 131.72 77.7011C132.019 77.7011 132.316 77.754 132.593 77.8566C132.869 77.9593 133.12 78.1098 133.332 78.2995C133.544 78.4892 133.712 78.7144 133.826 78.9622C133.941 79.2101 134 79.4757 134 79.744Z" fill="#90CAF9"/>
<path d="M285.63 191.386C285.63 199.844 282.831 208.112 277.586 215.145C272.341 222.178 264.887 227.659 256.165 230.896C247.444 234.133 237.847 234.98 228.588 233.33C219.33 231.68 210.825 227.607 204.15 221.626C197.475 215.645 192.929 208.025 191.087 199.729C189.245 191.433 190.191 182.834 193.803 175.02C197.416 167.205 203.533 160.526 211.383 155.827C219.232 151.128 228.46 148.62 237.9 148.62C250.507 148.619 262.602 153.088 271.545 161.05C280.487 169.012 285.551 179.821 285.63 191.117V191.386Z" stroke="#263238" stroke-width="4.11736" stroke-miterlimit="10"/>
<path d="M462.8 94.976H292.92C286.723 94.976 281.7 99.4769 281.7 105.029V138.817C281.7 144.369 286.723 148.87 292.92 148.87H462.8C468.997 148.87 474.02 144.369 474.02 138.817V105.029C474.02 99.4769 468.997 94.976 462.8 94.976Z" fill="white" stroke="#263238" stroke-width="1.02934" stroke-miterlimit="10"/>
<path d="M315.36 121.686H446.43" stroke="#263238" stroke-width="1.02934" stroke-miterlimit="10"/>
<path d="M311.27 121.686L331.97 108.613H384.69L406.2 121.686" stroke="#263238" stroke-width="1.02934" stroke-miterlimit="10"/>
<path d="M410.28 121.686C410.28 122.411 410.04 123.12 409.59 123.723C409.14 124.325 408.501 124.795 407.753 125.072C407.005 125.349 406.182 125.421 405.388 125.279C404.595 125.137 403.866 124.787 403.294 124.274C402.723 123.76 402.334 123.107 402.177 122.395C402.021 121.684 402.103 120.947 402.414 120.277C402.725 119.608 403.251 119.036 403.925 118.634C404.599 118.233 405.391 118.019 406.2 118.021C407.283 118.024 408.321 118.411 409.086 119.098C409.85 119.785 410.28 120.715 410.28 121.686Z" fill="#90CAF9" stroke="#263238" stroke-width="1.02934" stroke-miterlimit="10"/>
<path d="M331.97 112.278C334.229 112.278 336.06 110.637 336.06 108.613C336.06 106.589 334.229 104.948 331.97 104.948C329.711 104.948 327.88 106.589 327.88 108.613C327.88 110.637 329.711 112.278 331.97 112.278Z" fill="#90CAF9" stroke="#263238" stroke-width="1.02934" stroke-miterlimit="10"/>
<path d="M388.77 108.613C388.772 109.339 388.534 110.048 388.085 110.652C387.636 111.256 386.998 111.728 386.25 112.006C385.502 112.285 384.679 112.358 383.885 112.217C383.09 112.076 382.361 111.726 381.788 111.213C381.215 110.7 380.826 110.047 380.668 109.335C380.511 108.623 380.592 107.886 380.903 107.216C381.214 106.546 381.74 105.973 382.414 105.571C383.088 105.169 383.88 104.956 384.69 104.957C385.771 104.96 386.808 105.346 387.572 106.031C388.337 106.716 388.767 107.644 388.77 108.613Z" fill="#90CAF9" stroke="#263238" stroke-width="1.02934" stroke-miterlimit="10"/>
<path d="M311.27 121.686L331.97 134.758H429.13L446.43 121.686" stroke="#263238" stroke-width="1.02934" stroke-miterlimit="10"/>
<path d="M367.71 134.758C367.71 135.483 367.47 136.192 367.021 136.794C366.571 137.397 365.933 137.867 365.185 138.144C364.438 138.421 363.615 138.494 362.822 138.353C362.029 138.211 361.3 137.862 360.728 137.35C360.156 136.837 359.766 136.184 359.609 135.473C359.451 134.762 359.532 134.026 359.841 133.356C360.151 132.686 360.675 132.114 361.348 131.711C362.02 131.309 362.811 131.094 363.62 131.094C364.705 131.094 365.745 131.48 366.512 132.167C367.279 132.854 367.71 133.786 367.71 134.758Z" fill="#90CAF9" stroke="#263238" stroke-width="1.02934" stroke-miterlimit="10"/>
<path d="M336.06 134.758C336.06 135.483 335.82 136.192 335.371 136.794C334.921 137.397 334.283 137.867 333.535 138.144C332.788 138.421 331.965 138.494 331.172 138.353C330.379 138.211 329.65 137.862 329.078 137.35C328.506 136.837 328.116 136.184 327.959 135.473C327.801 134.762 327.882 134.026 328.191 133.356C328.501 132.686 329.025 132.114 329.698 131.711C330.37 131.309 331.161 131.094 331.97 131.094C333.055 131.094 334.095 131.48 334.862 132.167C335.629 132.854 336.06 133.786 336.06 134.758Z" fill="#90CAF9" stroke="#263238" stroke-width="1.02934" stroke-miterlimit="10"/>
<path d="M433.22 134.758C433.22 135.483 432.98 136.192 432.531 136.794C432.081 137.397 431.443 137.867 430.695 138.144C429.948 138.421 429.125 138.494 428.332 138.353C427.539 138.211 426.81 137.862 426.238 137.35C425.666 136.837 425.276 136.184 425.119 135.473C424.961 134.762 425.042 134.026 425.351 133.356C425.661 132.686 426.185 132.114 426.858 131.711C427.53 131.309 428.321 131.094 429.13 131.094C430.215 131.094 431.255 131.48 432.022 132.167C432.789 132.854 433.22 133.786 433.22 134.758Z" fill="#90CAF9" stroke="#263238" stroke-width="1.02934" stroke-miterlimit="10"/>
<path d="M446.43 125.35C448.689 125.35 450.52 123.71 450.52 121.686C450.52 119.662 448.689 118.021 446.43 118.021C444.171 118.021 442.34 119.662 442.34 121.686C442.34 123.71 444.171 125.35 446.43 125.35Z" fill="#90CAF9" stroke="#263238" stroke-width="1.02934" stroke-miterlimit="10"/>
<path d="M315.36 121.686C315.36 122.411 315.12 123.12 314.67 123.723C314.22 124.325 313.581 124.795 312.833 125.072C312.085 125.349 311.262 125.421 310.468 125.279C309.675 125.137 308.946 124.787 308.374 124.274C307.803 123.76 307.414 123.107 307.257 122.395C307.101 121.684 307.183 120.947 307.494 120.277C307.805 119.608 308.331 119.036 309.005 118.634C309.679 118.233 310.471 118.019 311.28 118.021C312.363 118.024 313.401 118.411 314.166 119.098C314.93 119.785 315.36 120.715 315.36 121.686Z" fill="#90CAF9" stroke="#263238" stroke-width="1.02934" stroke-miterlimit="10"/>
<path d="M192.07 208.499H94.2C88.0034 208.499 82.98 213 82.98 218.552V306.244C82.98 311.796 88.0034 316.297 94.2 316.297H192.07C198.267 316.297 203.29 311.796 203.29 306.244V218.552C203.29 213 198.267 208.499 192.07 208.499Z" fill="white" stroke="#263238" stroke-width="1.02934" stroke-miterlimit="10"/>
<path d="M128.09 270.045L112.51 297.185H183.13" stroke="#263238" stroke-width="1.02934" stroke-linecap="round" stroke-linejoin="round"/>
<path d="M183.13 229.044L150.17 248.676L183.13 257.564" stroke="#263238" stroke-width="1.02934" stroke-linecap="round" stroke-linejoin="round"/>
<path d="M190.92 222.065H175.34V236.024H190.92V222.065Z" fill="#90CAF9" stroke="#263238" stroke-width="1.02934" stroke-miterlimit="10"/>
<path d="M190.92 250.584H175.34V264.544H190.92V250.584Z" fill="#90CAF9" stroke="#263238" stroke-width="1.02934" stroke-miterlimit="10"/>
<path d="M157.96 241.696H142.38V255.656H157.96V241.696Z" fill="#90CAF9" stroke="#263238" stroke-width="1.02934" stroke-miterlimit="10"/>
<path d="M135.88 263.066H120.3V277.025H135.88V263.066Z" fill="#90CAF9" stroke="#263238" stroke-width="1.02934" stroke-miterlimit="10"/>
<path d="M120.3 290.196H104.72V304.156H120.3V290.196Z" fill="#90CAF9" stroke="#263238" stroke-width="1.02934" stroke-miterlimit="10"/>
<path d="M190.92 290.196H175.34V304.156H190.92V290.196Z" fill="#90CAF9" stroke="#263238" stroke-width="1.02934" stroke-miterlimit="10"/>
<path d="M135.02 166.253H37.15C30.9534 166.253 25.93 170.754 25.93 176.306V263.997C25.93 269.55 30.9534 274.051 37.15 274.051H135.02C141.217 274.051 146.24 269.55 146.24 263.997V176.306C146.24 170.754 141.217 166.253 135.02 166.253Z" fill="white" stroke="#263238" stroke-width="1.02934" stroke-miterlimit="10"/>
<path d="M118.69 176.682H38.66V182.237H118.69V176.682Z" fill="#90CAF9"/>
<path d="M84.9 185.83H38.66V191.386H84.9V185.83Z" fill="#90CAF9"/>
<path d="M65.59 194.979H38.66V200.534H65.59V194.979Z" fill="#90CAF9"/>
<path d="M82.98 204.118H38.66V209.673H82.98V204.118Z" fill="#90CAF9"/>
<path d="M107.75 213.266H38.66V218.821H107.75V213.266Z" fill="#90CAF9"/>
<path d="M84.9 222.405H38.66V227.96H84.9V222.405Z" fill="#90CAF9"/>
<path d="M70.92 231.553H38.66V237.108H70.92V231.553Z" fill="#90CAF9"/>
<path d="M90.89 240.701H38.66V246.257H90.89V240.701Z" fill="#90CAF9"/>
<path d="M101.98 249.841H38.66V255.396H101.98V249.841Z" fill="#90CAF9"/>
<path d="M118.69 258.989H38.66V264.544H118.69V258.989Z" fill="#90CAF9"/>
<path opacity="0.3" d="M118.69 176.682H38.66V182.237H118.69V176.682Z" fill="black"/>
<path opacity="0.3" d="M84.9 185.83H38.66V191.386H84.9V185.83Z" fill="black"/>
<path opacity="0.3" d="M65.59 194.979H38.66V200.534H65.59V194.979Z" fill="black"/>
<path opacity="0.3" d="M82.98 204.118H38.66V209.673H82.98V204.118Z" fill="black"/>
<path opacity="0.3" d="M107.75 213.266H38.66V218.821H107.75V213.266Z" fill="black"/>
<path opacity="0.3" d="M84.9 222.405H38.66V227.96H84.9V222.405Z" fill="black"/>
<path opacity="0.3" d="M70.92 231.553H38.66V237.108H70.92V231.553Z" fill="black"/>
<path opacity="0.3" d="M90.89 240.701H38.66V246.257H90.89V240.701Z" fill="black"/>
<path opacity="0.3" d="M101.98 249.841H38.66V255.396H101.98V249.841Z" fill="black"/>
<path opacity="0.3" d="M118.69 258.989H38.66V264.544H118.69V258.989Z" fill="black"/>
<path d="M90.19 156.8H119.31C120.716 156.8 122.064 157.3 123.058 158.191C124.052 159.081 124.61 160.289 124.61 161.549V166.271H84.89V161.549C84.89 160.289 85.4484 159.081 86.4423 158.191C87.4363 157.3 88.7844 156.8 90.19 156.8Z" fill="white" stroke="#263238" stroke-width="1.02934" stroke-miterlimit="10"/>
<path d="M70.5 156.8H99.28C100.733 156.8 102.127 157.317 103.155 158.238C104.183 159.159 104.76 160.408 104.76 161.71V166.28H65V161.71C65 161.064 65.1424 160.424 65.419 159.827C65.6957 159.23 66.1011 158.688 66.6121 158.232C67.1231 157.776 67.7296 157.414 68.3968 157.169C69.0639 156.923 69.7787 156.798 70.5 156.8Z" fill="#90CAF9" stroke="#263238" stroke-width="1.02934" stroke-miterlimit="10"/>
<path d="M48.37 156.8H77.85C79.2088 156.795 80.5143 157.274 81.4798 158.13C82.4453 158.987 82.9921 160.152 83 161.37V166.253H43.25V161.37C43.2579 160.157 43.8005 158.996 44.7596 158.14C45.7186 157.284 47.0164 156.802 48.37 156.8Z" fill="white" stroke="#263238" stroke-width="1.02934" stroke-miterlimit="10"/>
<path d="M423.18 354.404H445.05" stroke="#263238" stroke-width="1.02934" stroke-linecap="round" stroke-linejoin="round"/>
<path d="M78.67 354.404H411.67" stroke="#263238" stroke-width="1.02934" stroke-linecap="round" stroke-linejoin="round"/>
<path d="M417.18 342.926C417.18 342.926 421.05 340.086 422.9 343.186C424.49 345.874 420.68 348.876 416.33 348.876V351.142C416.33 351.142 425.65 351.366 426.33 344.333C427.01 337.299 417.14 339.244 417.14 339.244L417.18 342.926Z" fill="#90CAF9" stroke="#263238" stroke-width="1.02934" stroke-linecap="round" stroke-linejoin="round"/>
<path d="M416.86 354.359H398.2L395.4 333.366H419.66L416.86 354.359Z" fill="#90CAF9" stroke="#263238" stroke-width="1.02934" stroke-linecap="round" stroke-linejoin="round"/>
<path d="M419.62 332.362H395.44C394.733 332.362 394.16 332.876 394.16 333.509V333.617C394.16 334.25 394.733 334.764 395.44 334.764H419.62C420.327 334.764 420.9 334.25 420.9 333.617V333.509C420.9 332.876 420.327 332.362 419.62 332.362Z" fill="white" stroke="#263238" stroke-width="1.02934" stroke-linecap="round" stroke-linejoin="round"/>
<path d="M404.36 330.077C404.36 330.077 412.94 325.463 410.14 320.168C407.34 314.872 397.87 311.387 397.87 303.144C397.87 296.047 406.29 293.422 411.79 290.6" stroke="#263238" stroke-width="1.02934" stroke-linecap="round" stroke-linejoin="round"/>
<path d="M407.18 295.608C406.06 296.288 405.101 297.159 404.358 298.171C403.614 299.184 403.102 300.318 402.849 301.508C402.596 302.699 402.608 303.922 402.885 305.109C403.161 306.295 403.697 307.421 404.46 308.421" stroke="#263238" stroke-width="1.02934" stroke-linecap="round" stroke-linejoin="round"/>
<path d="M411.85 316.53C413.569 319.487 414.045 322.899 413.19 326.144" stroke="#263238" stroke-width="1.02934" stroke-linecap="round" stroke-linejoin="round"/>
<path d="M182 352.666C182 352.666 181.61 346.645 175.68 344.521C169.75 342.397 166.58 343.276 153.35 346.465C145.007 348.421 136.462 349.607 127.85 350.005V352.693L182 352.666Z" fill="white" stroke="#263238" stroke-width="1.02934" stroke-linecap="round" stroke-linejoin="round"/>
<path d="M181.81 352.666C181.81 352.666 182.2 346.645 188.13 344.521C194.06 342.397 197.22 343.276 210.46 346.465C218.816 348.425 227.374 349.61 236 350.005V352.693L181.81 352.666Z" fill="white" stroke="#263238" stroke-width="1.02934" stroke-linecap="round" stroke-linejoin="round"/>
<path d="M238.15 351.599H126.49V353.544H238.15V351.599Z" fill="#263238" stroke="#263238" stroke-width="1.02934" stroke-linecap="round" stroke-linejoin="round"/>
<path d="M184.69 352.558C185.222 351.138 186.081 349.834 187.214 348.732C188.346 347.629 189.724 346.753 191.26 346.161" stroke="#263238" stroke-width="1.02934" stroke-linecap="round" stroke-linejoin="round"/>
<path d="M188.07 352.128C188.859 350.909 189.931 349.857 191.212 349.041C192.494 348.224 193.956 347.664 195.5 347.397C199.19 346.788 202.95 347.926 206.43 349.189C209.91 350.452 216 352.128 219.72 352.128" stroke="#263238" stroke-width="1.02934" stroke-linecap="round" stroke-linejoin="round"/>
<path d="M149.4 351.581C153.097 351.224 156.722 350.41 160.17 349.162C162.247 348.288 164.393 347.552 166.59 346.958C168.812 346.371 171.203 346.587 173.25 347.558C174.131 348.071 174.905 348.717 175.54 349.467C176.422 350.466 177.152 351.566 177.71 352.737" stroke="#263238" stroke-width="1.02934" stroke-linecap="round" stroke-linejoin="round"/>
<path d="M169.82 348.875C171.037 349.017 172.161 349.533 173 350.336C173.812 351.14 174.519 352.024 175.11 352.97" stroke="#263238" stroke-width="1.02934" stroke-linecap="round" stroke-linejoin="round"/>
<path d="M266.6 351.698C262.515 353.375 258.092 354.29 253.6 354.386C246.68 354.386 232.6 341.573 232.6 341.573C232.6 341.573 232.09 340.193 233.19 335.032C234.29 329.871 244.63 282.518 244.63 282.518C244.63 282.518 245.85 271.497 252.84 264.732C259.83 257.967 273.55 255.557 273.55 255.557C273.55 255.557 303.89 243.721 320.91 247.377C337.91 253.425 356.48 259.571 362.68 264.338C368.88 269.105 384.12 307.346 389.4 326.986C389.4 326.986 377.77 349.126 366.92 355.345C356.07 361.563 329.92 359.538 329.92 359.538L266.6 351.698Z" fill="#90CAF9"/>
<path opacity="0.3" d="M262.75 313.215L258.36 261.023C255.486 262.066 252.939 263.719 250.937 265.84C248.936 267.962 247.54 270.487 246.87 273.199C244.6 282.536 230.87 339.996 232.57 341.591C234.27 343.186 243.22 350.058 243.22 350.058C243.22 350.058 252.87 357.45 262.75 353.033C272.63 348.616 262.75 313.215 262.75 313.215Z" fill="black"/>
<path opacity="0.3" d="M306.31 265.861C305.8 267.42 303.61 267.922 301.79 267.94C296.56 267.991 291.487 266.335 287.52 263.281C286.8 262.716 273.93 269.839 272.45 270.547C270.11 271.676 267.82 272.913 265.45 273.961C263.23 274.938 261.13 275.421 259.68 277.393C258.719 278.846 257.995 280.415 257.53 282.052C254.41 291.209 251.12 300.339 248.28 309.559C245.82 317.542 242.51 326.377 242.65 334.755C242.651 335.354 242.698 335.953 242.79 336.547C244.79 347.254 266.61 351.698 266.61 351.698C266.61 351.698 258.89 355.936 253.61 354.386C248.33 352.836 235.99 346.51 232.1 340.596L242.81 290.42C242.81 290.42 242.68 266.228 262.14 259.06C281.6 251.892 289.24 250.79 289.24 250.79L306.31 265.861Z" fill="black"/>
<path opacity="0.3" d="M378.12 344.79C378.12 344.79 386.62 336.376 389.37 327.004C389.37 327.004 376.37 288.53 372.99 281.308C369.61 274.086 364.14 265.888 360.31 262.376L354.09 341.564L352.78 358.23C352.78 358.23 359.78 358.49 364.63 356.438C369.48 354.386 378.12 344.79 378.12 344.79Z" fill="black"/>
<path d="M352.78 358.257L360.31 262.385C360.31 262.385 323.85 247.153 314.31 245.701C304.77 244.25 258.44 260.611 258.44 260.611L265.18 352.558" stroke="#263238" stroke-width="1.02934" stroke-linecap="round" stroke-linejoin="round"/>
<path d="M287.06 198.912L283.32 214.995C283.32 214.995 278.52 211.958 277.5 215.389C276.48 218.821 279.6 223.543 285.63 223.803C285.63 223.803 287.27 231.087 292.63 236.033C295.153 238.446 297.824 240.731 300.63 242.879C300.63 242.879 302.74 255.091 309.63 255.557C316.52 256.023 317.86 250.468 319.25 242.744C319.25 242.744 325.2 233.498 326.94 228.498C326.94 228.498 334.24 223.937 329.37 217.28C329.37 217.28 331.78 201.358 327.59 198.67C323.4 195.982 294.37 197.353 287.06 198.912Z" fill="white"/>
<path d="M309.29 256.829C309.29 256.829 306.98 267.259 305.54 267.519C304.1 267.779 298.4 262.904 293.42 256.829C288.44 250.755 289.21 250.746 289.21 250.746C289.21 250.746 291.52 242.771 293.42 241.606C295.32 240.442 302.17 240.585 302.17 240.585L317.17 240.074C317.17 240.074 322.17 239.438 325.26 241.221C328.35 243.004 329.85 250.746 329.85 250.746C329.85 250.746 320.85 265.61 313.51 267.519C311.874 264.032 310.465 260.463 309.29 256.829Z" fill="white"/>
<path d="M260.12 335.14L262.11 310.124" stroke="#263238" stroke-width="1.02934" stroke-miterlimit="10"/>
<path d="M329.85 203.517C329.85 203.517 321.33 206.474 313.8 205.91C313.8 205.91 305.85 213.078 295.67 208.822C295.67 208.822 286.49 231.096 307.54 245.665C302.216 243.835 297.453 240.898 293.643 237.095C289.834 233.293 287.088 228.734 285.63 223.794C285.63 223.794 279.63 224.627 277.5 216.626C277.5 216.626 275.77 213.535 283.66 213.517L283.32 198.016L303.59 201.663L318.14 199.754L329.85 203.517Z" fill="#90CAF9"/>
<path opacity="0.4" d="M329.85 203.517C329.85 203.517 321.33 206.474 313.8 205.91C313.8 205.91 305.85 213.078 295.67 208.822C295.67 208.822 288.25 232.673 306.67 245.262C306.67 245.262 289.96 240.074 285.62 223.758C285.62 223.758 279.68 223.194 277.49 216.59C277.49 216.59 275.76 213.499 283.65 213.481L283.31 197.98L303.58 201.627L318.13 199.718L329.85 203.517Z" fill="white"/>
<path d="M306.68 234.394C307.34 234.872 308.032 235.314 308.75 235.72C309.22 235.988 309.93 236.204 310.26 235.809C310.373 235.648 310.432 235.462 310.43 235.272C310.73 230.872 309.58 226.428 310.28 222.065" stroke="#263238" stroke-width="1.02934" stroke-linecap="round" stroke-linejoin="round"/>
<path d="M313.51 219.565C313.51 219.565 315.95 214.744 322.24 219.072" stroke="#263238" stroke-width="2.05868" stroke-linecap="round" stroke-linejoin="round"/>
<path d="M305.6 220.416C305.6 220.416 301 215.291 295.3 220.577" stroke="#263238" stroke-width="2.05868" stroke-linecap="round" stroke-linejoin="round"/>
<path d="M299.39 242.108C299.39 242.108 301.84 255.252 310.48 255.656C317.48 255.978 318.86 245.11 319.13 241.221" stroke="#263238" stroke-width="1.02934" stroke-linecap="round" stroke-linejoin="round"/>
<path d="M284.5 216.456C284.5 216.456 280.69 212.379 278.11 214.368C275.53 216.357 279.4 225.12 285.63 223.794" stroke="#263238" stroke-width="1.02934" stroke-linecap="round" stroke-linejoin="round"/>
<path d="M301 236.024C302.88 238.055 305.451 239.478 308.32 240.074" stroke="#263238" stroke-width="1.02934" stroke-linecap="round" stroke-linejoin="round"/>
<path d="M300.58 228.399C301.127 228.399 301.57 227.557 301.57 226.518C301.57 225.479 301.127 224.636 300.58 224.636C300.033 224.636 299.59 225.479 299.59 226.518C299.59 227.557 300.033 228.399 300.58 228.399Z" fill="#263238"/>
<path d="M317.62 226.518C317.62 227.557 317.17 228.399 316.62 228.399C316.07 228.399 315.62 227.557 315.62 226.518C315.62 225.478 316.06 224.627 316.62 224.627C317.18 224.627 317.62 225.478 317.62 226.518Z" fill="#263238"/>
<path d="M309.57 255.548C309.57 255.548 307.17 267.259 305.57 267.519C303.97 267.779 291.66 257.779 289.24 250.746C289.24 250.746 291.84 241.553 294.24 241.221C295.37 241.06 296.67 240.907 297.7 240.791" stroke="#263238" stroke-width="1.02934" stroke-linecap="round" stroke-linejoin="round"/>
<path d="M309.57 255.548C309.57 255.548 311.89 267.259 313.51 267.519C315.13 267.779 327.43 257.779 329.85 250.746C329.85 250.746 326.91 241.615 324.68 240.845C323.257 240.367 321.792 239.995 320.3 239.734" stroke="#263238" stroke-width="1.02934" stroke-linecap="round" stroke-linejoin="round"/>
<path d="M286.81 226.742C288.39 229.197 290.35 220.55 289.52 217.782C288.96 215.99 287.87 214.252 287.77 212.406C287.67 210.309 288.77 208.347 289.63 206.385C290.49 204.422 290.94 202.084 289.63 200.328C294.171 203.206 299.503 204.919 305.05 205.283C306.465 205.461 307.906 205.357 309.27 204.978C309.946 204.779 310.553 204.427 311.033 203.956C311.513 203.485 311.85 202.911 312.01 202.29C317.21 202.881 322.36 203.491 327.54 202.854C331.89 202.326 338.65 201.34 340.88 197.362C344.15 191.556 335.73 185.526 330.76 183.492C318.76 178.573 302.54 177.74 291.7 185.463C290.588 186.327 289.423 187.135 288.21 187.882C285.82 189.226 280.38 190.266 278.47 192.138C275.91 194.656 279.12 214.099 279.12 214.099C279.12 214.099 283.3 212.361 285.02 218.158C286.22 222.065 285.21 224.269 286.81 226.742Z" fill="#263238"/>
<path d="M326.13 201.6C326.06 201.841 326.013 202.087 325.99 202.335C325.878 204.54 326.172 206.747 326.86 208.867C327.13 209.816 327.52 210.739 327.69 211.707C328.09 214.01 328.09 216.232 329.99 218.104C329.99 218.104 333.63 206.698 332.16 198.545C331.99 197.649 331.66 195.229 330.05 195.668C328.87 195.991 328.05 197.801 327.53 198.679C326.95 199.606 326.481 200.585 326.13 201.6Z" fill="#263238"/>
<path d="M275.89 190.848C277.5 189.847 279.352 189.203 281.294 188.969C283.236 188.735 285.213 188.919 287.06 189.504C289.966 184.867 294.011 180.884 298.89 177.856" stroke="#263238" stroke-width="1.02934" stroke-linecap="round" stroke-linejoin="round"/>
<path opacity="0.47" d="M291.53 188.106C291.53 188.106 311.13 200.596 323 197.505C334.87 194.414 331.55 185.266 331.55 185.266" stroke="white" stroke-width="1.02934" stroke-linecap="round" stroke-linejoin="round"/>
<path opacity="0.47" d="M293.42 186.01C293.42 186.01 318.03 196.143 322.17 181.798" stroke="white" stroke-width="1.02934" stroke-linecap="round" stroke-linejoin="round"/>
<path d="M299.39 242.108C299.39 242.108 304.07 250.253 307.74 250.118C311.41 249.984 318.14 241.221 318.14 241.221C318.14 241.221 314.51 245.414 309 245.844C305.37 246.131 299.39 242.108 299.39 242.108Z" fill="#263238"/>
<path d="M327.71 301.576L328.47 301.262C328.896 301.093 329.245 300.8 329.461 300.431C329.677 300.062 329.747 299.638 329.66 299.228L329.51 298.404C329.436 297.993 329.209 297.617 328.866 297.337C328.522 297.057 328.083 296.89 327.62 296.863L326.7 296.791C326.337 296.768 325.987 296.659 325.686 296.475C325.386 296.29 325.145 296.038 324.99 295.743C324.74 295.277 324.48 294.847 324.19 294.381C324.008 294.101 323.912 293.782 323.912 293.458C323.912 293.134 324.008 292.815 324.19 292.535L324.66 291.818C324.89 291.457 324.983 291.039 324.923 290.626C324.864 290.214 324.655 289.83 324.33 289.533L323.67 288.951C323.349 288.644 322.918 288.448 322.451 288.397C321.985 288.346 321.514 288.444 321.12 288.673L320.31 289.103C319.997 289.266 319.642 289.352 319.28 289.352C318.918 289.352 318.563 289.266 318.25 289.103C316.938 288.424 315.528 287.909 314.06 287.571C313.701 287.487 313.374 287.318 313.114 287.082C312.853 286.845 312.669 286.55 312.58 286.227L312.34 285.331C312.241 284.914 311.979 284.543 311.601 284.283C311.224 284.024 310.755 283.893 310.28 283.916H309.36C308.886 283.893 308.419 284.022 308.042 284.28C307.664 284.537 307.401 284.907 307.3 285.322L307.04 286.218C306.956 286.537 306.777 286.829 306.522 287.063C306.266 287.296 305.944 287.463 305.59 287.544C305.07 287.679 304.59 287.813 304.07 287.983C303.725 288.094 303.354 288.121 302.994 288.061C302.633 288.001 302.298 287.857 302.02 287.643L301.19 287.007C300.851 286.726 300.413 286.559 299.952 286.535C299.491 286.51 299.034 286.629 298.66 286.872L297.93 287.32C297.528 287.548 297.229 287.897 297.088 288.304C296.947 288.711 296.972 289.151 297.16 289.542L297.53 290.438C297.664 290.744 297.704 291.076 297.648 291.4C297.592 291.724 297.441 292.029 297.21 292.284C296.878 292.636 296.567 293.004 296.28 293.386C296.071 293.66 295.783 293.878 295.446 294.017C295.11 294.155 294.738 294.21 294.37 294.175L293.37 294.094C292.905 294.038 292.433 294.13 292.036 294.355C291.64 294.579 291.344 294.921 291.2 295.322L290.87 296.128C290.71 296.511 290.697 296.932 290.833 297.323C290.968 297.714 291.245 298.053 291.62 298.287L292.62 298.888C292.916 299.078 293.15 299.335 293.301 299.632C293.452 299.929 293.514 300.256 293.48 300.581C293.418 301.06 293.391 301.542 293.4 302.024C293.391 302.339 293.295 302.647 293.12 302.92C292.946 303.194 292.698 303.425 292.4 303.592L291.4 304.076C290.989 304.275 290.666 304.594 290.485 304.98C290.303 305.366 290.273 305.796 290.4 306.199L290.64 307.005C290.756 307.412 291.024 307.77 291.398 308.021C291.773 308.272 292.232 308.4 292.7 308.385H293.7C294.061 308.382 294.417 308.463 294.732 308.62C295.048 308.777 295.313 309.005 295.5 309.281C295.78 309.729 296.07 310.177 296.39 310.563C296.596 310.83 296.719 311.142 296.747 311.466C296.775 311.79 296.707 312.115 296.55 312.408L296.13 313.197C295.923 313.571 295.863 313.997 295.961 314.406C296.059 314.814 296.309 315.181 296.67 315.446L297.38 315.983C297.734 316.254 298.179 316.409 298.644 316.424C299.109 316.438 299.566 316.311 299.94 316.064L300.68 315.598C300.967 315.414 301.303 315.302 301.654 315.272C302.006 315.242 302.359 315.296 302.68 315.428C303.21 315.652 303.74 315.849 304.29 316.037C304.628 316.149 304.927 316.339 305.157 316.588C305.387 316.836 305.54 317.134 305.6 317.453L305.75 318.259C305.828 318.67 306.057 319.045 306.402 319.325C306.746 319.604 307.186 319.772 307.65 319.8L308.59 319.872C309.051 319.912 309.514 319.81 309.903 319.584C310.291 319.358 310.583 319.02 310.73 318.627L311.02 317.91C311.143 317.599 311.356 317.323 311.637 317.11C311.918 316.898 312.257 316.756 312.62 316.7C313.203 316.616 313.78 316.506 314.35 316.369C314.701 316.285 315.071 316.285 315.422 316.37C315.774 316.455 316.093 316.622 316.35 316.852L316.96 317.408C317.281 317.704 317.704 317.895 318.161 317.95C318.618 318.006 319.082 317.922 319.48 317.713L320.3 317.3C320.713 317.1 321.037 316.78 321.219 316.392C321.401 316.004 321.429 315.572 321.3 315.168L321.07 314.451C320.962 314.13 320.954 313.789 321.046 313.464C321.137 313.139 321.325 312.842 321.59 312.605C322.02 312.228 322.427 311.83 322.81 311.414C323.049 311.157 323.361 310.963 323.713 310.852C324.065 310.742 324.444 310.719 324.81 310.787L325.64 310.93C326.096 311.009 326.568 310.947 326.98 310.755C327.392 310.563 327.72 310.252 327.91 309.873L328.3 309.12C328.505 308.742 328.559 308.313 328.454 307.904C328.348 307.494 328.089 307.13 327.72 306.871L327.1 306.414C326.812 306.217 326.59 305.954 326.456 305.653C326.322 305.351 326.282 305.023 326.34 304.703C326.438 304.154 326.501 303.6 326.53 303.045C326.569 302.73 326.698 302.429 326.905 302.172C327.112 301.915 327.389 301.709 327.71 301.576ZM315.32 302.051C315.322 303.015 315.005 303.958 314.408 304.761C313.811 305.564 312.963 306.19 311.969 306.56C310.975 306.93 309.881 307.028 308.825 306.841C307.769 306.654 306.799 306.191 306.037 305.509C305.275 304.828 304.756 303.959 304.545 303.014C304.335 302.068 304.442 301.087 304.853 300.196C305.265 299.305 305.962 298.543 306.857 298.007C307.751 297.471 308.804 297.185 309.88 297.185C311.316 297.183 312.694 297.691 313.712 298.598C314.73 299.505 315.305 300.737 315.31 302.024L315.32 302.051Z" fill="#263238"/>
<path d="M260.33 331.771C259.514 332.577 258.62 333.317 257.66 333.984C255.057 336.243 253.104 339.035 251.97 342.12C251.41 343.546 251.41 345.101 251.97 346.528C253.18 349.216 257.02 351.904 260.09 350.184" stroke="#263238" stroke-width="1.02934" stroke-linecap="round" stroke-linejoin="round"/>
<path d="M260.09 327.04C257.16 326.628 254.28 328.151 252.28 330.095C250.28 332.04 248.89 334.441 247.07 336.529" stroke="#263238" stroke-width="1.02934" stroke-linecap="round" stroke-linejoin="round"/>
<path d="M259.86 353.983C255.96 354.662 251.922 354.275 248.27 352.872C245.957 351.757 243.801 350.397 241.85 348.822L234.25 343.195C233.03 342.299 231.68 341 232.18 339.656C232.18 339.656 244.88 279.686 246.87 273.199C249.18 265.718 258.48 260.655 258.48 260.655" stroke="#263238" stroke-width="1.02934" stroke-linecap="round" stroke-linejoin="round"/>
<path d="M355.15 332.416C358.42 334.619 360.921 337.612 362.36 341.045C363.498 344.229 364.259 347.511 364.63 350.838C362.63 351.823 358.63 354.422 355.15 354.422" stroke="#263238" stroke-width="1.02934" stroke-linecap="round" stroke-linejoin="round"/>
<path d="M355.58 327.425C358.66 326.691 361.71 328.572 364.04 330.525C366.37 332.479 368.76 334.746 371.93 335.05" stroke="#263238" stroke-width="1.02934" stroke-linecap="round" stroke-linejoin="round"/>
<path d="M356.17 358.588C362.17 358.024 367.57 355.094 371.89 351.357C376.21 347.621 379.53 343.087 382.82 338.598C385.49 334.961 388.2 331.224 389.37 327.004C389.37 327.004 378.84 295.814 372.99 281.308C366.89 266.228 360.31 262.376 360.31 262.376" stroke="#263238" stroke-width="1.02934" stroke-linecap="round" stroke-linejoin="round"/>
<path d="M355.58 327.425C361.01 323.34 369.34 326.646 375.18 329.388" stroke="#263238" stroke-width="1.02934" stroke-linecap="round" stroke-linejoin="round"/>
<path d="M355.14 310.733H260.33V359.556H355.14V310.733Z" fill="white"/>
<path d="M355.58 359.556H259.86V362.109H355.58V359.556Z" fill="#263238"/>
<path d="M259.86 359.556L355.15 310.733L355.58 359.556H259.86Z" fill="#263238"/>
<path opacity="0.9" d="M259.86 359.556L355.15 310.733L355.58 359.556H259.86Z" fill="white"/>
<path d="M314.728 339.465C317.883 336.638 317.883 332.054 314.728 329.227C311.572 326.399 306.456 326.399 303.301 329.227C300.145 332.054 300.145 336.638 303.301 339.465C306.456 342.292 311.572 342.292 314.728 339.465Z" fill="#263238"/>
<path d="M355.14 310.733H260.33V359.556H355.14V310.733Z" stroke="#263238" stroke-width="1.02934" stroke-linecap="round" stroke-linejoin="round"/>
<path d="M284.06 211.51C284.06 211.51 286.14 228.534 288.78 231.607C291.42 234.68 299.9 245.8 309.14 245.629C318.38 245.459 324.41 234.815 325.92 230.254C327.799 224.478 328.937 218.529 329.31 212.522" stroke="#263238" stroke-width="1.02934" stroke-linecap="round" stroke-linejoin="round"/>
<path d="M326.88 228.48C326.88 228.48 333.73 225.308 329.31 217.262" stroke="#263238" stroke-width="1.02934" stroke-linecap="round" stroke-linejoin="round"/>
</svg>
