<svg version="1.1" id="Layer_1" xmlns="http://www.w3.org/2000/svg" xmlns:xlink="http://www.w3.org/1999/xlink" x="0px" y="0px"
	 width="100%" viewBox="0 0 1024 1024" enable-background="new 0 0 1024 1024" xml:space="preserve">
<path fill="#000000" opacity="1.000000" stroke="none" 
	d="
M694.247864,601.080627 
	C687.871399,617.047363 681.601379,632.645203 675.378479,648.261780 
	C672.433899,655.651306 671.758179,656.403198 664.093750,656.068909 
	C644.271362,655.204346 624.454041,655.770325 604.645508,656.229980 
	C597.995178,656.384277 594.443420,653.826782 591.538635,647.964478 
	C566.470276,597.372864 541.138123,546.911987 515.869995,496.419434 
	C514.306458,493.294952 512.655762,490.212280 510.974945,487.148987 
	C510.134888,485.617950 509.785370,483.339294 507.421783,483.518066 
	C505.516998,483.662140 504.925385,485.522614 504.164185,486.987213 
	C496.177979,502.353027 488.109741,517.677063 480.243195,533.103882 
	C471.618958,550.016724 463.106323,566.987793 454.723541,584.021301 
	C452.857849,587.812317 450.322968,589.401123 446.126984,589.395081 
	C400.137207,589.328735 354.147247,589.328430 308.157654,589.446106 
	C304.151306,589.456360 302.888123,587.934753 302.968872,584.168457 
	C303.268646,570.180359 303.561981,556.189453 303.597290,542.198914 
	C303.801208,461.383881 303.792725,380.567993 304.189667,299.754028 
	C304.280457,281.267303 304.729095,262.775085 304.583344,244.285431 
	C304.549530,239.996552 306.165070,238.794968 310.179382,238.981583 
	C338.804108,240.312241 367.448792,239.411774 396.083557,239.495621 
	C432.385193,239.601929 468.699249,238.536896 504.988312,239.146317 
	C565.533203,240.163055 614.580200,264.042633 649.049561,314.912720 
	C662.184509,334.297455 668.931885,356.066284 671.493713,379.268616 
	C674.448914,406.033447 673.071960,432.335510 664.643250,458.124908 
	C654.874939,488.012970 638.474487,513.741028 616.463135,535.991394 
	C604.505859,548.078430 604.461243,547.952393 612.419556,562.928345 
	C618.748169,574.837524 624.926636,586.826538 631.165222,598.783508 
	C631.924194,600.238159 632.447449,601.848389 634.074890,603.045898 
	C636.583862,601.852356 637.341492,599.379089 638.251770,597.164673 
	C651.794922,564.220642 665.274719,531.250610 678.793762,498.296722 
	C690.603943,469.508179 702.490356,440.750671 714.216797,411.928101 
	C715.752747,408.152893 717.936951,406.564392 722.086243,406.617188 
	C736.413940,406.799652 750.745605,406.655121 765.075745,406.673096 
	C770.963013,406.680481 771.957581,408.022705 769.733826,413.627869 
	C761.817810,433.581024 753.807983,453.497162 745.779358,473.405426 
	C728.662048,515.850708 711.510925,558.282288 694.247864,601.080627 
M367.348602,345.499939 
	C367.210175,393.645477 367.096924,441.791077 366.914948,489.936462 
	C366.871521,501.425476 366.488251,512.913513 366.474213,524.402283 
	C366.466156,531.000244 367.237976,531.608948 373.603027,531.616150 
	C386.764160,531.631104 399.928131,531.460632 413.084747,531.703857 
	C417.319458,531.782104 419.726410,530.397644 421.675262,526.600037 
	C433.763580,503.044464 446.125824,479.629669 458.285095,456.110229 
	C466.007172,441.173615 473.576324,426.157349 481.118195,411.128662 
	C482.729279,407.918304 484.918091,406.587372 488.604492,406.654694 
	C500.095917,406.864532 511.599854,406.968079 523.085449,406.640106 
	C527.746155,406.507019 530.220032,408.044708 532.348206,412.217316 
	C545.586731,438.173706 559.089783,463.995514 572.559875,489.833374 
	C576.258789,496.928467 578.167358,497.039307 583.064392,491.009216 
	C602.538940,467.028839 612.262451,439.672668 613.141663,408.734039 
	C614.056946,376.527252 603.366943,349.374817 580.203735,327.150452 
	C557.133545,305.015381 528.568115,296.893890 497.573212,296.512939 
	C456.596619,296.009338 415.609253,296.376953 374.626495,296.393250 
	C368.128967,296.395844 367.372620,297.154846 367.359863,303.517181 
	C367.332489,317.178040 367.350067,330.838989 367.348602,345.499939 
z"/>
<path fill="#000000" opacity="1.000000" stroke="none" 
	d="
M617.303955,751.336060 
	C622.214844,736.438599 627.098938,721.932007 631.695740,707.334900 
	C632.840698,703.699097 634.608459,702.427856 638.429260,702.550232 
	C650.940918,702.951111 647.812683,701.052917 651.404053,712.194275 
	C656.239319,727.194153 660.968506,742.228210 666.652283,757.209473 
	C670.623718,742.356201 674.591614,727.501953 678.567749,712.649963 
	C681.786560,700.626404 679.393921,702.914124 691.521790,702.708618 
	C694.810547,702.652954 698.163757,702.204590 701.275391,703.155396 
	C702.529907,704.569946 701.695923,705.868774 701.345459,707.056763 
	C693.582825,733.369263 685.747864,759.660583 678.016541,785.982239 
	C677.105530,789.083679 675.342407,790.272400 672.207886,790.117310 
	C669.050293,789.961182 665.859070,789.876587 662.717529,790.155212 
	C658.495117,790.529602 656.591064,788.957947 655.444763,784.708374 
	C650.944885,768.025635 645.994995,751.464294 640.790344,733.393005 
	C637.740173,743.593079 634.968079,752.481323 632.438354,761.437927 
	C630.225586,769.272644 628.158813,777.154297 626.280701,785.075256 
	C625.397644,788.799438 623.499023,790.116272 619.668335,790.141235 
	C604.639832,790.239136 604.695312,790.335022 600.391052,776.075317 
	C593.711975,753.947876 586.935181,731.849976 580.246887,709.725342 
	C579.640808,707.720398 578.374451,705.757263 579.574219,702.728271 
	C585.573669,702.728271 591.855591,702.592407 598.127014,702.789673 
	C600.957153,702.878662 601.019775,705.532410 601.548523,707.607239 
	C605.815552,724.349243 610.100159,741.086853 614.476440,758.205627 
	C615.465454,755.815552 616.318237,753.754578 617.303955,751.336060 
z"/>
<path fill="#000000" opacity="1.000000" stroke="none" 
	d="
M473.160645,755.806885 
	C468.501373,749.629639 464.059753,743.736572 459.413727,737.572205 
	C457.882812,739.849060 458.381897,741.553650 458.377228,743.145935 
	C458.336304,757.131775 458.261475,771.119141 458.437592,785.102966 
	C458.484528,788.830750 457.109650,790.189636 453.513824,790.099548 
	C435.285858,789.643127 438.889526,792.861694 438.711395,776.209656 
	C438.470947,753.734680 438.772278,731.254028 438.550110,708.778687 
	C438.502960,704.009521 439.979736,702.886902 444.700409,702.413452 
	C454.144653,701.466187 460.033356,704.582947 465.439636,712.734863 
	C474.785614,726.827271 485.761475,739.838745 496.312714,753.642700 
	C497.978760,748.928650 497.254822,744.705872 497.158752,740.465637 
	C496.909760,729.481384 497.036591,718.489014 496.838226,707.502991 
	C496.770691,703.762146 498.360718,702.691406 501.927917,702.619751 
	C517.352905,702.310120 517.350647,702.221130 517.349915,717.482361 
	C517.348938,739.626892 517.219421,761.772705 517.448303,783.914856 
	C517.499146,788.826416 515.711487,789.791199 511.129883,790.232788 
	C502.495056,791.065002 496.609344,788.765442 491.872650,780.888062 
	C486.585175,772.094849 479.615662,764.313049 473.160645,755.806885 
z"/>
<path fill="#000000" opacity="1.000000" stroke="none" 
	d="
M234.647217,753.999878 
	C234.649780,738.343445 234.769470,723.185608 234.578552,708.031616 
	C234.526657,703.911560 235.857651,702.505249 239.994171,702.588074 
	C250.982300,702.808228 261.999817,702.210754 272.966095,702.747375 
	C302.267731,704.181213 318.915649,725.101440 314.814209,753.530457 
	C311.556854,776.108826 296.604919,788.148682 273.746979,789.468811 
	C262.419067,790.122986 251.101761,789.650574 239.791000,790.057800 
	C235.876236,790.198792 234.497070,788.939819 234.579086,784.977905 
	C234.789352,774.822510 234.648132,764.659729 234.647217,753.999878 
M293.547668,738.064758 
	C289.919434,726.445618 284.080139,721.186035 273.454010,720.402222 
	C268.823517,720.060669 264.149872,720.349426 259.503448,720.162659 
	C256.267334,720.032654 255.089310,721.396973 255.110596,724.575745 
	C255.205154,738.698914 255.212997,752.823120 255.136459,766.946411 
	C255.118820,770.201904 256.049866,771.939880 259.674408,771.729797 
	C263.483917,771.508972 267.320374,771.787903 271.135559,771.625305 
	C284.359680,771.061707 291.486664,764.471985 293.872162,751.683594 
	C294.697021,747.261597 294.291870,743.140381 293.547668,738.064758 
z"/>
<path fill="#000000" opacity="1.000000" stroke="none" 
	d="
M330.270905,790.098206 
	C328.165436,790.035706 326.455536,790.207397 325.335724,789.016724 
	C324.692719,787.733459 325.206390,786.821167 325.585693,785.918945 
	C336.745728,759.373596 347.940918,732.842896 359.040344,706.272278 
	C360.070068,703.807251 361.376038,702.502625 364.181366,702.606201 
	C369.668884,702.808777 375.769501,701.325134 380.488220,703.272644 
	C385.292786,705.255737 385.493286,712.169006 387.575043,716.944580 
	C397.419189,739.526794 407.007812,762.220276 416.689606,784.873291 
	C417.206818,786.083313 417.943298,787.235168 417.527863,789.181885 
	C411.377106,790.800415 404.922211,790.154419 398.537628,789.804749 
	C396.259186,789.679932 395.757904,787.169922 395.023590,785.341003 
	C390.208710,773.348816 390.218262,773.340149 377.282410,773.331421 
	C370.618011,773.326965 363.950439,773.466003 357.290588,773.295715 
	C354.195557,773.216614 351.776611,774.119507 351.291504,777.207031 
	C349.358093,789.511658 341.329315,791.779114 330.270905,790.098206 
M372.468628,755.915283 
	C375.697784,755.679199 379.035370,756.441162 382.704376,754.889282 
	C379.341888,745.667725 376.140381,736.644287 371.175079,726.694580 
	C367.139740,736.967102 363.678101,745.779114 360.067291,754.970886 
	C364.285217,756.415955 367.938538,755.707092 372.468628,755.915283 
z"/>
<path fill="#000000" opacity="1.000000" stroke="none" 
	d="
M720.775696,719.003296 
	C720.770691,715.006653 720.928284,711.499390 720.718018,708.014221 
	C720.491333,704.257324 721.726379,702.381836 725.779602,702.628052 
	C729.430420,702.849792 733.112976,702.833923 736.766724,702.642029 
	C740.274719,702.457703 741.416382,703.942444 741.387329,707.341064 
	C741.271912,720.830566 741.381226,734.321838 741.323364,747.812073 
	C741.309021,751.158020 741.610840,754.428833 742.271240,757.709106 
	C744.011230,766.351440 750.634033,771.741882 759.661743,771.711975 
	C769.021729,771.680969 775.022827,766.605225 776.764038,757.549377 
	C777.461487,753.921509 777.677795,750.311829 777.665344,746.642944 
	C777.621155,733.652222 777.807251,720.657715 777.533081,707.672485 
	C777.447083,703.599121 778.791199,702.368469 782.638428,702.624268 
	C786.452393,702.877808 790.296326,702.720215 794.126465,702.677063 
	C796.545593,702.649841 797.625488,703.382629 797.593140,706.172424 
	C797.392517,723.489258 797.602478,740.812256 797.281067,758.125854 
	C796.974487,774.642700 785.383850,787.324524 767.866150,790.270691 
	C742.549683,794.528442 721.555786,781.340271 720.830444,751.478943 
	C720.571655,740.825928 720.780701,730.161499 720.775696,719.003296 
z"/>
</svg>